<mxfile host="drawio-plugin" modified="2022-01-26T19:58:09.711Z" agent="5.0 (Windows NT 6.2; Win64; x64) AppleWebKit/537.36 (KHTML, like Gecko) Chrome/89.0.4389.114 Safari/537.36" etag="ryc81p0Huhkj37UNchUJ" version="15.5.4" type="embed"><diagram id="JK1bCWv3sO-GalwJ4SKU" name="Page-1"><mxGraphModel dx="2522" dy="1238" grid="1" gridSize="10" guides="1" tooltips="1" connect="1" arrows="1" fold="1" page="1" pageScale="1" pageWidth="827" pageHeight="1169" math="0" shadow="0"><root><mxCell id="0"/><mxCell id="1" parent="0"/><mxCell id="dpx9zj4S5eDOiPECrAbD-47" value="LoginView" style="swimlane;fontStyle=1;align=center;verticalAlign=top;childLayout=stackLayout;horizontal=1;startSize=26;horizontalStack=0;resizeParent=1;resizeParentMax=0;resizeLast=0;collapsible=1;marginBottom=0;" parent="1" vertex="1"><mxGeometry x="-790" y="40" width="230" height="250" as="geometry"/></mxCell><mxCell id="dpx9zj4S5eDOiPECrAbD-48" value="- userLogic: UserLogic&#10;- usernameTextfield : TextField&#10;- passwordTextfield : PasswordField&#10;- loginButton : Button&#10;- welcomeLabel : Label&#10;- statusLabel : Label&#10;- headerTitel : Label" style="text;strokeColor=none;fillColor=none;align=left;verticalAlign=top;spacingLeft=4;spacingRight=4;overflow=hidden;rotatable=0;points=[[0,0.5],[1,0.5]];portConstraint=eastwest;" parent="dpx9zj4S5eDOiPECrAbD-47" vertex="1"><mxGeometry y="26" width="230" height="114" as="geometry"/></mxCell><mxCell id="dpx9zj4S5eDOiPECrAbD-49" value="" style="line;strokeWidth=1;fillColor=none;align=left;verticalAlign=middle;spacingTop=-1;spacingLeft=3;spacingRight=3;rotatable=0;labelPosition=right;points=[];portConstraint=eastwest;" parent="dpx9zj4S5eDOiPECrAbD-47" vertex="1"><mxGeometry y="140" width="230" height="8" as="geometry"/></mxCell><mxCell id="dpx9zj4S5eDOiPECrAbD-50" value="-  configureStyles() : void&#10;- configureButtonActions() : void&#10;- addHeader() : HorizontalLayout&#10;- addWelcomPanel() : HorizontalLayout&#10;- addLoginPanel() : VerticalLayout&#10;- addFooter() : HorizontalLayout" style="text;strokeColor=none;fillColor=none;align=left;verticalAlign=top;spacingLeft=4;spacingRight=4;overflow=hidden;rotatable=0;points=[[0,0.5],[1,0.5]];portConstraint=eastwest;" parent="dpx9zj4S5eDOiPECrAbD-47" vertex="1"><mxGeometry y="148" width="230" height="102" as="geometry"/></mxCell><mxCell id="dpx9zj4S5eDOiPECrAbD-51" value="Artikel" style="swimlane;fontStyle=1;align=center;verticalAlign=top;childLayout=stackLayout;horizontal=1;startSize=26;horizontalStack=0;resizeParent=1;resizeParentMax=0;resizeLast=0;collapsible=1;marginBottom=0;" parent="1" vertex="1"><mxGeometry x="-520.06" y="630" width="160" height="170" as="geometry"/></mxCell><mxCell id="dpx9zj4S5eDOiPECrAbD-52" value="- userID : Long&#10;- name : String&#10;- anzahl : int&#10;- preis : double&#10;- kaufdatum : LocalDate&#10;- mitarbeiterName : String" style="text;strokeColor=none;fillColor=none;align=left;verticalAlign=top;spacingLeft=4;spacingRight=4;overflow=hidden;rotatable=0;points=[[0,0.5],[1,0.5]];portConstraint=eastwest;" parent="dpx9zj4S5eDOiPECrAbD-51" vertex="1"><mxGeometry y="26" width="160" height="94" as="geometry"/></mxCell><mxCell id="dpx9zj4S5eDOiPECrAbD-53" value="" style="line;strokeWidth=1;fillColor=none;align=left;verticalAlign=middle;spacingTop=-1;spacingLeft=3;spacingRight=3;rotatable=0;labelPosition=right;points=[];portConstraint=eastwest;" parent="dpx9zj4S5eDOiPECrAbD-51" vertex="1"><mxGeometry y="120" width="160" height="8" as="geometry"/></mxCell><mxCell id="dpx9zj4S5eDOiPECrAbD-54" value="getter &#10;setter" style="text;strokeColor=none;fillColor=none;align=left;verticalAlign=top;spacingLeft=4;spacingRight=4;overflow=hidden;rotatable=0;points=[[0,0.5],[1,0.5]];portConstraint=eastwest;" parent="dpx9zj4S5eDOiPECrAbD-51" vertex="1"><mxGeometry y="128" width="160" height="42" as="geometry"/></mxCell><mxCell id="dpx9zj4S5eDOiPECrAbD-55" value="DatabaseConfig" style="swimlane;fontStyle=1;align=center;verticalAlign=top;childLayout=stackLayout;horizontal=1;startSize=26;horizontalStack=0;resizeParent=1;resizeParentMax=0;resizeLast=0;collapsible=1;marginBottom=0;" parent="1" vertex="1"><mxGeometry x="590" y="170" width="190" height="60" as="geometry"/></mxCell><mxCell id="dpx9zj4S5eDOiPECrAbD-57" value="" style="line;strokeWidth=1;fillColor=none;align=left;verticalAlign=middle;spacingTop=-1;spacingLeft=3;spacingRight=3;rotatable=0;labelPosition=right;points=[];portConstraint=eastwest;" parent="dpx9zj4S5eDOiPECrAbD-55" vertex="1"><mxGeometry y="26" width="190" height="8" as="geometry"/></mxCell><mxCell id="dpx9zj4S5eDOiPECrAbD-58" value="+ dataSource : HikariDataSoure" style="text;strokeColor=none;fillColor=none;align=left;verticalAlign=top;spacingLeft=4;spacingRight=4;overflow=hidden;rotatable=0;points=[[0,0.5],[1,0.5]];portConstraint=eastwest;" parent="dpx9zj4S5eDOiPECrAbD-55" vertex="1"><mxGeometry y="34" width="190" height="26" as="geometry"/></mxCell><mxCell id="48" style="edgeStyle=orthogonalEdgeStyle;rounded=0;orthogonalLoop=1;jettySize=auto;html=1;exitX=1;exitY=0.25;exitDx=0;exitDy=0;entryX=0;entryY=0;entryDx=0;entryDy=0;" edge="1" parent="1" source="dpx9zj4S5eDOiPECrAbD-59" target="dpx9zj4S5eDOiPECrAbD-67"><mxGeometry relative="1" as="geometry"/></mxCell><mxCell id="dpx9zj4S5eDOiPECrAbD-59" value="MainLayout&#10;" style="swimlane;fontStyle=1;align=center;verticalAlign=top;childLayout=stackLayout;horizontal=1;startSize=26;horizontalStack=0;resizeParent=1;resizeParentMax=0;resizeLast=0;collapsible=1;marginBottom=0;" parent="1" vertex="1"><mxGeometry x="-493" y="250" width="160" height="110" as="geometry"/></mxCell><mxCell id="dpx9zj4S5eDOiPECrAbD-61" value="" style="line;strokeWidth=1;fillColor=none;align=left;verticalAlign=middle;spacingTop=-1;spacingLeft=3;spacingRight=3;rotatable=0;labelPosition=right;points=[];portConstraint=eastwest;" parent="dpx9zj4S5eDOiPECrAbD-59" vertex="1"><mxGeometry y="26" width="160" height="24" as="geometry"/></mxCell><mxCell id="dpx9zj4S5eDOiPECrAbD-80" value="- createDrawer(): void&#10;- createHeader() : void&#10;- createFooter() : void" style="text;strokeColor=none;fillColor=none;align=left;verticalAlign=top;spacingLeft=4;spacingRight=4;overflow=hidden;rotatable=0;points=[[0,0.5],[1,0.5]];portConstraint=eastwest;" parent="dpx9zj4S5eDOiPECrAbD-59" vertex="1"><mxGeometry y="50" width="160" height="60" as="geometry"/></mxCell><mxCell id="dpx9zj4S5eDOiPECrAbD-67" value="HomeView" style="swimlane;fontStyle=1;align=center;verticalAlign=top;childLayout=stackLayout;horizontal=1;startSize=26;horizontalStack=0;resizeParent=1;resizeParentMax=0;resizeLast=0;collapsible=1;marginBottom=0;" parent="1" vertex="1"><mxGeometry x="-40" y="240" width="240" height="144" as="geometry"/></mxCell><mxCell id="dpx9zj4S5eDOiPECrAbD-68" value="- user : User&#10;- userLogic : UserLogic&#10;- artikelService : ArtikelService&#10;- artikelGrid : Artikel Grid&#10;- artikelForm : ArtikelForm" style="text;strokeColor=none;fillColor=none;align=left;verticalAlign=top;spacingLeft=4;spacingRight=4;overflow=hidden;rotatable=0;points=[[0,0.5],[1,0.5]];portConstraint=eastwest;" parent="dpx9zj4S5eDOiPECrAbD-67" vertex="1"><mxGeometry y="26" width="240" height="84" as="geometry"/></mxCell><mxCell id="dpx9zj4S5eDOiPECrAbD-69" value="" style="line;strokeWidth=1;fillColor=none;align=left;verticalAlign=middle;spacingTop=-1;spacingLeft=3;spacingRight=3;rotatable=0;labelPosition=right;points=[];portConstraint=eastwest;" parent="dpx9zj4S5eDOiPECrAbD-67" vertex="1"><mxGeometry y="110" width="240" height="8" as="geometry"/></mxCell><mxCell id="dpx9zj4S5eDOiPECrAbD-70" value="+ setParameter(Beforevent, String) : void" style="text;strokeColor=none;fillColor=none;align=left;verticalAlign=top;spacingLeft=4;spacingRight=4;overflow=hidden;rotatable=0;points=[[0,0.5],[1,0.5]];portConstraint=eastwest;" parent="dpx9zj4S5eDOiPECrAbD-67" vertex="1"><mxGeometry y="118" width="240" height="26" as="geometry"/></mxCell><mxCell id="dpx9zj4S5eDOiPECrAbD-71" value="UserService" style="swimlane;fontStyle=1;align=center;verticalAlign=top;childLayout=stackLayout;horizontal=1;startSize=26;horizontalStack=0;resizeParent=1;resizeParentMax=0;resizeLast=0;collapsible=1;marginBottom=0;" parent="1" vertex="1"><mxGeometry x="90" y="30" width="210" height="130" as="geometry"/></mxCell><mxCell id="dpx9zj4S5eDOiPECrAbD-72" value="- jdbcTemplate : JdbcTemplate" style="text;strokeColor=none;fillColor=none;align=left;verticalAlign=top;spacingLeft=4;spacingRight=4;overflow=hidden;rotatable=0;points=[[0,0.5],[1,0.5]];portConstraint=eastwest;" parent="dpx9zj4S5eDOiPECrAbD-71" vertex="1"><mxGeometry y="26" width="210" height="26" as="geometry"/></mxCell><mxCell id="dpx9zj4S5eDOiPECrAbD-73" value="" style="line;strokeWidth=1;fillColor=none;align=left;verticalAlign=middle;spacingTop=-1;spacingLeft=3;spacingRight=3;rotatable=0;labelPosition=right;points=[];portConstraint=eastwest;" parent="dpx9zj4S5eDOiPECrAbD-71" vertex="1"><mxGeometry y="52" width="210" height="8" as="geometry"/></mxCell><mxCell id="dpx9zj4S5eDOiPECrAbD-74" value="+ getUsername(username) : String&#10;+ getPassword(password) : String&#10;+ selectUser(id) : User" style="text;strokeColor=none;fillColor=none;align=left;verticalAlign=top;spacingLeft=4;spacingRight=4;overflow=hidden;rotatable=0;points=[[0,0.5],[1,0.5]];portConstraint=eastwest;" parent="dpx9zj4S5eDOiPECrAbD-71" vertex="1"><mxGeometry y="60" width="210" height="70" as="geometry"/></mxCell><mxCell id="44" style="edgeStyle=orthogonalEdgeStyle;rounded=0;orthogonalLoop=1;jettySize=auto;html=1;exitX=0.25;exitY=0;exitDx=0;exitDy=0;entryX=0;entryY=0.5;entryDx=0;entryDy=0;" edge="1" parent="1" source="dpx9zj4S5eDOiPECrAbD-85" target="dpx9zj4S5eDOiPECrAbD-70"><mxGeometry relative="1" as="geometry"/></mxCell><mxCell id="dpx9zj4S5eDOiPECrAbD-85" value="ArtikelForm" style="swimlane;fontStyle=1;align=center;verticalAlign=top;childLayout=stackLayout;horizontal=1;startSize=26;horizontalStack=0;resizeParent=1;resizeParentMax=0;resizeLast=0;collapsible=1;marginBottom=0;" parent="1" vertex="1"><mxGeometry x="75" y="820" width="240" height="290" as="geometry"/></mxCell><mxCell id="dpx9zj4S5eDOiPECrAbD-86" value="- homeView : HomeView&#10;- abschreibungLLogic : AbschreibungLogic&#10;- artikelForm : FormLayout&#10;- artikelGrid : ArtikelGrid&#10;- userId : NumberField&#10;- name : TextField&#10;- anzahl : TestField&#10;- preis : NumberField&#10;- kaufdatum : DatePicker&#10;- save : Button&#10;- delete : Button&#10;- close : Button&#10;- createAbschreibung : Button" style="text;strokeColor=none;fillColor=none;align=left;verticalAlign=top;spacingLeft=4;spacingRight=4;overflow=hidden;rotatable=0;points=[[0,0.5],[1,0.5]];portConstraint=eastwest;" parent="dpx9zj4S5eDOiPECrAbD-85" vertex="1"><mxGeometry y="26" width="240" height="194" as="geometry"/></mxCell><mxCell id="dpx9zj4S5eDOiPECrAbD-87" value="" style="line;strokeWidth=1;fillColor=none;align=left;verticalAlign=middle;spacingTop=-1;spacingLeft=3;spacingRight=3;rotatable=0;labelPosition=right;points=[];portConstraint=eastwest;" parent="dpx9zj4S5eDOiPECrAbD-85" vertex="1"><mxGeometry y="220" width="240" height="8" as="geometry"/></mxCell><mxCell id="dpx9zj4S5eDOiPECrAbD-91" value="- createButtonsLayout(): HorizontalLayout&#10;- cinfigureButtonsLayout : void&#10;+ setArtikel(Artikel artikel): void" style="text;strokeColor=none;fillColor=none;align=left;verticalAlign=top;spacingLeft=4;spacingRight=4;overflow=hidden;rotatable=0;points=[[0,0.5],[1,0.5]];portConstraint=eastwest;" parent="dpx9zj4S5eDOiPECrAbD-85" vertex="1"><mxGeometry y="228" width="240" height="62" as="geometry"/></mxCell><mxCell id="52" style="edgeStyle=orthogonalEdgeStyle;rounded=0;orthogonalLoop=1;jettySize=auto;html=1;exitX=0.25;exitY=0;exitDx=0;exitDy=0;entryX=0;entryY=0.5;entryDx=0;entryDy=0;" edge="1" parent="1" source="ngp0wAnZCHWu4Mk-oeTr-2" target="10"><mxGeometry relative="1" as="geometry"/></mxCell><mxCell id="ngp0wAnZCHWu4Mk-oeTr-2" value="ArtikelListe" style="swimlane;fontStyle=1;align=center;verticalAlign=top;childLayout=stackLayout;horizontal=1;startSize=26;horizontalStack=0;resizeParent=1;resizeParentMax=0;resizeLast=0;collapsible=1;marginBottom=0;" parent="1" vertex="1"><mxGeometry x="-260" y="662" width="240" height="86" as="geometry"/></mxCell><mxCell id="ngp0wAnZCHWu4Mk-oeTr-3" value="- ArtikelListe: artikel" style="text;strokeColor=none;fillColor=none;align=left;verticalAlign=top;spacingLeft=4;spacingRight=4;overflow=hidden;rotatable=0;points=[[0,0.5],[1,0.5]];portConstraint=eastwest;" parent="ngp0wAnZCHWu4Mk-oeTr-2" vertex="1"><mxGeometry y="26" width="240" height="26" as="geometry"/></mxCell><mxCell id="ngp0wAnZCHWu4Mk-oeTr-4" value="" style="line;strokeWidth=1;fillColor=none;align=left;verticalAlign=middle;spacingTop=-1;spacingLeft=3;spacingRight=3;rotatable=0;labelPosition=right;points=[];portConstraint=eastwest;" parent="ngp0wAnZCHWu4Mk-oeTr-2" vertex="1"><mxGeometry y="52" width="240" height="8" as="geometry"/></mxCell><mxCell id="ngp0wAnZCHWu4Mk-oeTr-5" value="+ getArtikelListe() : List&lt;Artikel&gt;" style="text;strokeColor=none;fillColor=none;align=left;verticalAlign=top;spacingLeft=4;spacingRight=4;overflow=hidden;rotatable=0;points=[[0,0.5],[1,0.5]];portConstraint=eastwest;" parent="ngp0wAnZCHWu4Mk-oeTr-2" vertex="1"><mxGeometry y="60" width="240" height="26" as="geometry"/></mxCell><mxCell id="ngp0wAnZCHWu4Mk-oeTr-8" value="User" style="swimlane;fontStyle=1;align=center;verticalAlign=top;childLayout=stackLayout;horizontal=1;startSize=26;horizontalStack=0;resizeParent=1;resizeParentMax=0;resizeLast=0;collapsible=1;marginBottom=0;" parent="1" vertex="1"><mxGeometry x="380" y="60" width="160" height="130" as="geometry"/></mxCell><mxCell id="ngp0wAnZCHWu4Mk-oeTr-9" value="- ID: long" style="text;strokeColor=none;fillColor=none;align=left;verticalAlign=top;spacingLeft=4;spacingRight=4;overflow=hidden;rotatable=0;points=[[0,0.5],[1,0.5]];portConstraint=eastwest;" parent="ngp0wAnZCHWu4Mk-oeTr-8" vertex="1"><mxGeometry y="26" width="160" height="26" as="geometry"/></mxCell><mxCell id="ngp0wAnZCHWu4Mk-oeTr-12" value="- UserName:  String" style="text;strokeColor=none;fillColor=none;align=left;verticalAlign=top;spacingLeft=4;spacingRight=4;overflow=hidden;rotatable=0;points=[[0,0.5],[1,0.5]];portConstraint=eastwest;" parent="ngp0wAnZCHWu4Mk-oeTr-8" vertex="1"><mxGeometry y="52" width="160" height="26" as="geometry"/></mxCell><mxCell id="ngp0wAnZCHWu4Mk-oeTr-13" value="- Password:  String" style="text;strokeColor=none;fillColor=none;align=left;verticalAlign=top;spacingLeft=4;spacingRight=4;overflow=hidden;rotatable=0;points=[[0,0.5],[1,0.5]];portConstraint=eastwest;" parent="ngp0wAnZCHWu4Mk-oeTr-8" vertex="1"><mxGeometry y="78" width="160" height="26" as="geometry"/></mxCell><mxCell id="ngp0wAnZCHWu4Mk-oeTr-10" value="" style="line;strokeWidth=1;fillColor=none;align=left;verticalAlign=middle;spacingTop=-1;spacingLeft=3;spacingRight=3;rotatable=0;labelPosition=right;points=[];portConstraint=eastwest;" parent="ngp0wAnZCHWu4Mk-oeTr-8" vertex="1"><mxGeometry y="104" width="160" height="26" as="geometry"/></mxCell><mxCell id="3" value="UserLogic" style="swimlane;fontStyle=1;align=center;verticalAlign=top;childLayout=stackLayout;horizontal=1;startSize=26;horizontalStack=0;resizeParent=1;resizeParentMax=0;resizeLast=0;collapsible=1;marginBottom=0;" vertex="1" parent="1"><mxGeometry x="-270" y="30" width="240" height="130" as="geometry"/></mxCell><mxCell id="4" value="- userService : UserService" style="text;strokeColor=none;fillColor=none;align=left;verticalAlign=top;spacingLeft=4;spacingRight=4;overflow=hidden;rotatable=0;points=[[0,0.5],[1,0.5]];portConstraint=eastwest;" vertex="1" parent="3"><mxGeometry y="26" width="240" height="26" as="geometry"/></mxCell><mxCell id="5" value="" style="line;strokeWidth=1;fillColor=none;align=left;verticalAlign=middle;spacingTop=-1;spacingLeft=3;spacingRight=3;rotatable=0;labelPosition=right;points=[];portConstraint=eastwest;" vertex="1" parent="3"><mxGeometry y="52" width="240" height="8" as="geometry"/></mxCell><mxCell id="6" value="+ checkIfUserExcists(usernae) : boolean&#10;+ checkPassword(username) : boolean" style="text;strokeColor=none;fillColor=none;align=left;verticalAlign=top;spacingLeft=4;spacingRight=4;overflow=hidden;rotatable=0;points=[[0,0.5],[1,0.5]];portConstraint=eastwest;" vertex="1" parent="3"><mxGeometry y="60" width="240" height="70" as="geometry"/></mxCell><mxCell id="41" style="edgeStyle=orthogonalEdgeStyle;rounded=0;orthogonalLoop=1;jettySize=auto;html=1;exitX=0.75;exitY=0;exitDx=0;exitDy=0;entryX=0;entryY=0.5;entryDx=0;entryDy=0;" edge="1" parent="1" source="7" target="dpx9zj4S5eDOiPECrAbD-68"><mxGeometry relative="1" as="geometry"/></mxCell><mxCell id="7" value="ArtikelLogic" style="swimlane;fontStyle=1;align=center;verticalAlign=top;childLayout=stackLayout;horizontal=1;startSize=26;horizontalStack=0;resizeParent=1;resizeParentMax=0;resizeLast=0;collapsible=1;marginBottom=0;" vertex="1" parent="1"><mxGeometry x="-300" y="400" width="210" height="150" as="geometry"/></mxCell><mxCell id="8" value="- artikelService : ArtikelService" style="text;strokeColor=none;fillColor=none;align=left;verticalAlign=top;spacingLeft=4;spacingRight=4;overflow=hidden;rotatable=0;points=[[0,0.5],[1,0.5]];portConstraint=eastwest;" vertex="1" parent="7"><mxGeometry y="26" width="210" height="54" as="geometry"/></mxCell><mxCell id="9" value="" style="line;strokeWidth=1;fillColor=none;align=left;verticalAlign=middle;spacingTop=-1;spacingLeft=3;spacingRight=3;rotatable=0;labelPosition=right;points=[];portConstraint=eastwest;" vertex="1" parent="7"><mxGeometry y="80" width="210" height="8" as="geometry"/></mxCell><mxCell id="10" value="+ getUserArtikelI(userId) : ArtikelListe&#10;+ deleteArtikel(artikelListe) : void" style="text;strokeColor=none;fillColor=none;align=left;verticalAlign=top;spacingLeft=4;spacingRight=4;overflow=hidden;rotatable=0;points=[[0,0.5],[1,0.5]];portConstraint=eastwest;" vertex="1" parent="7"><mxGeometry y="88" width="210" height="62" as="geometry"/></mxCell><mxCell id="42" style="edgeStyle=orthogonalEdgeStyle;rounded=0;orthogonalLoop=1;jettySize=auto;html=1;exitX=0.5;exitY=0;exitDx=0;exitDy=0;entryX=1.004;entryY=0.112;entryDx=0;entryDy=0;entryPerimeter=0;" edge="1" parent="1" source="11" target="dpx9zj4S5eDOiPECrAbD-68"><mxGeometry relative="1" as="geometry"/></mxCell><mxCell id="11" value="ArtikelGrid" style="swimlane;fontStyle=1;align=center;verticalAlign=top;childLayout=stackLayout;horizontal=1;startSize=26;horizontalStack=0;resizeParent=1;resizeParentMax=0;resizeLast=0;collapsible=1;marginBottom=0;" vertex="1" parent="1"><mxGeometry x="450" y="880" width="210" height="180" as="geometry"/></mxCell><mxCell id="12" value="- homeView : HomeView&#10;- grid : Grid&lt;Artikel&gt;&#10;- filterText : TextField&#10;- selectedArtikel : Set&lt;Artikel&gt;" style="text;strokeColor=none;fillColor=none;align=left;verticalAlign=top;spacingLeft=4;spacingRight=4;overflow=hidden;rotatable=0;points=[[0,0.5],[1,0.5]];portConstraint=eastwest;" vertex="1" parent="11"><mxGeometry y="26" width="210" height="74" as="geometry"/></mxCell><mxCell id="13" value="" style="line;strokeWidth=1;fillColor=none;align=left;verticalAlign=middle;spacingTop=-1;spacingLeft=3;spacingRight=3;rotatable=0;labelPosition=right;points=[];portConstraint=eastwest;" vertex="1" parent="11"><mxGeometry y="100" width="210" height="8" as="geometry"/></mxCell><mxCell id="14" value="+ configureGrid : void&#10;- getToolBar() : HorizontalLayout&#10;+ getSelectedArtikel() : Set&lt;Artikel&gt;&#10;+ getGrid() : Grid&lt;Artikel&gt;" style="text;strokeColor=none;fillColor=none;align=left;verticalAlign=top;spacingLeft=4;spacingRight=4;overflow=hidden;rotatable=0;points=[[0,0.5],[1,0.5]];portConstraint=eastwest;" vertex="1" parent="11"><mxGeometry y="108" width="210" height="72" as="geometry"/></mxCell><mxCell id="15" value="EmployeeGrid" style="swimlane;fontStyle=1;align=center;verticalAlign=top;childLayout=stackLayout;horizontal=1;startSize=26;horizontalStack=0;resizeParent=1;resizeParentMax=0;resizeLast=0;collapsible=1;marginBottom=0;" vertex="1" parent="1"><mxGeometry x="580" y="370" width="210" height="180" as="geometry"/></mxCell><mxCell id="16" value="- homeView : HomeView&#10;- grid : Grid&lt;Artikel&gt;&#10;- selectedArtikel : Set&lt;Artikel&gt;" style="text;strokeColor=none;fillColor=none;align=left;verticalAlign=top;spacingLeft=4;spacingRight=4;overflow=hidden;rotatable=0;points=[[0,0.5],[1,0.5]];portConstraint=eastwest;" vertex="1" parent="15"><mxGeometry y="26" width="210" height="54" as="geometry"/></mxCell><mxCell id="17" value="" style="line;strokeWidth=1;fillColor=none;align=left;verticalAlign=middle;spacingTop=-1;spacingLeft=3;spacingRight=3;rotatable=0;labelPosition=right;points=[];portConstraint=eastwest;" vertex="1" parent="15"><mxGeometry y="80" width="210" height="8" as="geometry"/></mxCell><mxCell id="18" value="- configureGrid : void&#10;- configureComponents() : void&#10;- getToolBar() : HorizontalLayout&#10;+ getSelectedArtikel() : Set&lt;Artikel&gt;&#10;+ getGrid() : Grid&lt;Artikel&gt;" style="text;strokeColor=none;fillColor=none;align=left;verticalAlign=top;spacingLeft=4;spacingRight=4;overflow=hidden;rotatable=0;points=[[0,0.5],[1,0.5]];portConstraint=eastwest;" vertex="1" parent="15"><mxGeometry y="88" width="210" height="92" as="geometry"/></mxCell><mxCell id="20" value="AbschreibungLogic" style="swimlane;fontStyle=1;align=center;verticalAlign=top;childLayout=stackLayout;horizontal=1;startSize=26;horizontalStack=0;resizeParent=1;resizeParentMax=0;resizeLast=0;collapsible=1;marginBottom=0;" vertex="1" parent="1"><mxGeometry x="-700" y="880" width="455" height="250" as="geometry"/></mxCell><mxCell id="21" value="- artikel : Artikel&#10;- heute : LocalDate&#10;- gesamtpreis : double&#10;- artikelTableColumns : String[]&#10;- abschreibungTableColumns : String[]" style="text;strokeColor=none;fillColor=none;align=left;verticalAlign=top;spacingLeft=4;spacingRight=4;overflow=hidden;rotatable=0;points=[[0,0.5],[1,0.5]];portConstraint=eastwest;" vertex="1" parent="20"><mxGeometry y="26" width="455" height="74" as="geometry"/></mxCell><mxCell id="22" value="" style="line;strokeWidth=1;fillColor=none;align=left;verticalAlign=middle;spacingTop=-1;spacingLeft=3;spacingRight=3;rotatable=0;labelPosition=right;points=[];portConstraint=eastwest;" vertex="1" parent="20"><mxGeometry y="100" width="455" height="8" as="geometry"/></mxCell><mxCell id="23" value="+ createAbschreibung(artikel) : boolean&#10;- checkKaufDatum() : boolean&#10;- checkPreis() : boolean&#10;- createAbschreibungPDF() : void&#10;- createPdfHeader() : Chunk&#10;- createTabelle(columnAnzahl, tableColumns, isAbschreibungTabelle) : PdfPTable&#10;- addTableHeader(table, columns) : void&#10;- addRows(tabel) : void&#10;- berechneAbschreibung(table) : void" style="text;strokeColor=none;fillColor=none;align=left;verticalAlign=top;spacingLeft=4;spacingRight=4;overflow=hidden;rotatable=0;points=[[0,0.5],[1,0.5]];portConstraint=eastwest;" vertex="1" parent="20"><mxGeometry y="108" width="455" height="142" as="geometry"/></mxCell><mxCell id="43" style="edgeStyle=orthogonalEdgeStyle;rounded=0;orthogonalLoop=1;jettySize=auto;html=1;exitX=0.5;exitY=0;exitDx=0;exitDy=0;entryX=1;entryY=0.5;entryDx=0;entryDy=0;" edge="1" parent="1" source="24" target="dpx9zj4S5eDOiPECrAbD-68"><mxGeometry relative="1" as="geometry"/></mxCell><mxCell id="24" value="ArtikelService" style="swimlane;fontStyle=1;align=center;verticalAlign=top;childLayout=stackLayout;horizontal=1;startSize=26;horizontalStack=0;resizeParent=1;resizeParentMax=0;resizeLast=0;collapsible=1;marginBottom=0;" vertex="1" parent="1"><mxGeometry x="240" y="568" width="210" height="180" as="geometry"/></mxCell><mxCell id="25" value="- jdbcTemplate : JdbcTemplate&#10;- getUserArtikleQuerry : String&#10;- deleteArtikelQuerry : String" style="text;strokeColor=none;fillColor=none;align=left;verticalAlign=top;spacingLeft=4;spacingRight=4;overflow=hidden;rotatable=0;points=[[0,0.5],[1,0.5]];portConstraint=eastwest;" vertex="1" parent="24"><mxGeometry y="26" width="210" height="74" as="geometry"/></mxCell><mxCell id="26" value="" style="line;strokeWidth=1;fillColor=none;align=left;verticalAlign=middle;spacingTop=-1;spacingLeft=3;spacingRight=3;rotatable=0;labelPosition=right;points=[];portConstraint=eastwest;" vertex="1" parent="24"><mxGeometry y="100" width="210" height="8" as="geometry"/></mxCell><mxCell id="27" value="+ getUserArtikel(userId) : ArtikelListe&#10;+ deleteArtikel(artikelListe) : void" style="text;strokeColor=none;fillColor=none;align=left;verticalAlign=top;spacingLeft=4;spacingRight=4;overflow=hidden;rotatable=0;points=[[0,0.5],[1,0.5]];portConstraint=eastwest;" vertex="1" parent="24"><mxGeometry y="108" width="210" height="72" as="geometry"/></mxCell><mxCell id="30" style="edgeStyle=orthogonalEdgeStyle;rounded=0;orthogonalLoop=1;jettySize=auto;html=1;exitX=0;exitY=0.5;exitDx=0;exitDy=0;" edge="1" parent="1" source="dpx9zj4S5eDOiPECrAbD-54" target="20"><mxGeometry relative="1" as="geometry"/></mxCell><mxCell id="31" style="edgeStyle=orthogonalEdgeStyle;rounded=0;orthogonalLoop=1;jettySize=auto;html=1;exitX=1;exitY=0.5;exitDx=0;exitDy=0;" edge="1" parent="1" source="dpx9zj4S5eDOiPECrAbD-52" target="ngp0wAnZCHWu4Mk-oeTr-3"><mxGeometry relative="1" as="geometry"/></mxCell><mxCell id="32" style="edgeStyle=orthogonalEdgeStyle;rounded=0;orthogonalLoop=1;jettySize=auto;html=1;exitX=0;exitY=0.5;exitDx=0;exitDy=0;entryX=1;entryY=0.5;entryDx=0;entryDy=0;" edge="1" parent="1" source="dpx9zj4S5eDOiPECrAbD-72" target="4"><mxGeometry relative="1" as="geometry"/></mxCell><mxCell id="33" style="edgeStyle=orthogonalEdgeStyle;rounded=0;orthogonalLoop=1;jettySize=auto;html=1;exitX=0;exitY=0.5;exitDx=0;exitDy=0;entryX=1;entryY=0.75;entryDx=0;entryDy=0;" edge="1" parent="1" source="ngp0wAnZCHWu4Mk-oeTr-12" target="dpx9zj4S5eDOiPECrAbD-71"><mxGeometry relative="1" as="geometry"/></mxCell><mxCell id="34" style="edgeStyle=orthogonalEdgeStyle;rounded=0;orthogonalLoop=1;jettySize=auto;html=1;exitX=1;exitY=0.5;exitDx=0;exitDy=0;entryX=0;entryY=0.5;entryDx=0;entryDy=0;" edge="1" parent="1" source="21" target="dpx9zj4S5eDOiPECrAbD-86"><mxGeometry relative="1" as="geometry"/></mxCell><mxCell id="35" style="edgeStyle=orthogonalEdgeStyle;rounded=0;orthogonalLoop=1;jettySize=auto;html=1;exitX=1;exitY=0.5;exitDx=0;exitDy=0;entryX=0;entryY=0.75;entryDx=0;entryDy=0;" edge="1" parent="1" source="ngp0wAnZCHWu4Mk-oeTr-3" target="24"><mxGeometry relative="1" as="geometry"/></mxCell><mxCell id="37" style="edgeStyle=orthogonalEdgeStyle;rounded=0;orthogonalLoop=1;jettySize=auto;html=1;exitX=0;exitY=0.5;exitDx=0;exitDy=0;entryX=1;entryY=0.5;entryDx=0;entryDy=0;" edge="1" parent="1" source="12" target="dpx9zj4S5eDOiPECrAbD-86"><mxGeometry relative="1" as="geometry"/></mxCell><mxCell id="39" style="edgeStyle=orthogonalEdgeStyle;rounded=0;orthogonalLoop=1;jettySize=auto;html=1;exitX=1;exitY=0.5;exitDx=0;exitDy=0;entryX=0.5;entryY=0;entryDx=0;entryDy=0;" edge="1" parent="1" source="6" target="dpx9zj4S5eDOiPECrAbD-67"><mxGeometry relative="1" as="geometry"><Array as="points"><mxPoint x="80" y="105"/><mxPoint x="80" y="240"/></Array></mxGeometry></mxCell><mxCell id="50" style="edgeStyle=orthogonalEdgeStyle;rounded=0;orthogonalLoop=1;jettySize=auto;html=1;exitX=1;exitY=0.5;exitDx=0;exitDy=0;entryX=0;entryY=0.5;entryDx=0;entryDy=0;" edge="1" parent="1" source="dpx9zj4S5eDOiPECrAbD-70" target="16"><mxGeometry relative="1" as="geometry"/></mxCell><mxCell id="51" style="edgeStyle=orthogonalEdgeStyle;rounded=0;orthogonalLoop=1;jettySize=auto;html=1;exitX=0;exitY=0.5;exitDx=0;exitDy=0;entryX=1;entryY=0.5;entryDx=0;entryDy=0;" edge="1" parent="1" source="4" target="dpx9zj4S5eDOiPECrAbD-48"><mxGeometry relative="1" as="geometry"/></mxCell></root></mxGraphModel></diagram></mxfile>